# xmcd
#
# Track frame offsets: 
#        150
#        17266
#        32041
#        47641
#        68566
#        85437
#        96889
#        111139
#        129964
#        143689
#        155089
#        167115
#        179277
#        194202
#        207815
#        223396
#        238066
#        256532
#        273870
#        285908
#        296920
#
# Disc length: 4155 seconds
#
# Revision: 0
# Processed by: cddbd v1.5PL3 Copyright (c) Steve Scherf et al.
# Submitted via: ExactAudioCopy v0.95a5
#
DISCID=32103915
DTITLE=Various Artist - Forever Country Songs Of American - 2
DYEAR=2002
DGENRE=Country
TTITLE0=Unchained Melody
TTITLE1=Shania Twain - You've Got Away
TTITLE2=Crystal Gayle - Ready For The Times To Get Better
TTITLE3=John Denver - Follow Me
TTITLE4=Carpenters - Jambalaya (On The Bayou)
TTITLE5=Dan Fogelberg - Rhythm Of The Rain
TTITLE6=Child
TTITLE7=Shania Twain - Any Man Of Mine
TTITLE8=Carpenters - Sweet, Sweet Smile
TTITLE9=Frankie Laine - Rose Rose I Love You
TTITLE10=The Mamas and The Papas - California Dreaming
TTITLE11=The Kingston Trio - Where Have All The Flowers Gone
TTITLE12=Garth Brooks - The Thunder Rolls
TTITLE13=Dawn - Cotton Fields
TTITLE14=Bobby Bare - Tie A Yellow Ribbon 'Round The Ole Oak Tree
TTITLE15=Ronnie Milsap - No Getting Over Me
TTITLE16=Don McLean - Vincent
TTITLE17=Juice Newton - Stony
TTITLE18=Skeeter Davis - The End Of The World
TTITLE19=Peter, Paul and Mary - Gone The Rainbow
TTITLE20=Johnny Horton - All For The Love Of A Girl
EXTD=
EXTT0=
EXTT1=
EXTT2=
EXTT3=
EXTT4=
EXTT5=
EXTT6=
EXTT7=
EXTT8=
EXTT9=
EXTT10=
EXTT11=
EXTT12=
EXTT13=
EXTT14=
EXTT15=
EXTT16=
EXTT17=
EXTT18=
EXTT19=
EXTT20=
PLAYORDER=
